# xmcd
# 
# Track frame offsets:
#     182
#     19682
#     38092
#     53167
#     70185
#     92777
#     119415
#     146592
#     163597
#     187297
#     209460
#     231127
#     249095
#     269477
#     285775
# 
# Disc length: 4105
# 
# Revision: 9
# Processed by: cddbd v1.5.2PL0 Copyright (c) Steve Scherf et al.
# Submitted via: fre:ac v1.0.31
# 
DISCID=d410070f
DTITLE=Fleetwood Mac - Blue Horizon Box Disc 4
DYEAR=1969
DGENRE=Blues
TTITLE0=Watch Out
TTITLE1=Ooh Baby
TTITLE2=South Indiana [take 1]
TTITLE3=South Indiana [take 2]
TTITLE4=Last Night
TTITLE5=Red Hot Jam [take 1]
TTITLE6=Red Hot Jam [take 2]
TTITLE7=I'm Worried
TTITLE8=I Held My Baby Last Night
TTITLE9=Madison Blues
TTITLE10=I Can't Hold Out
TTITLE11=Bobby's Rock
TTITLE12=I Need Your Love
TTITLE13=Horton's Boogie Woogie
TTITLE14=I Got the Blues
EXTD=
EXTT0=
EXTT1=
EXTT2=
EXTT3=
EXTT4=
EXTT5=
EXTT6=
EXTT7=
EXTT8=
EXTT9=
EXTT10=
EXTT11=
EXTT12=
EXTT13=
EXTT14=
PLAYORDER=
